<?xml version="1.0" encoding="UTF-8"?>
<svg id="Layer_2" data-name="Layer 2" xmlns="http://www.w3.org/2000/svg" xmlns:xlink="http://www.w3.org/1999/xlink" viewBox="0 0 953 733.34">
  <defs>
    <style>
      .cls-1 {
        mask: url(#mask);
      }

      .cls-2 {
        fill: #231f20;
      }

      .cls-3 {
        fill: #fff;
      }
    </style>
    <mask id="mask" x="0" y="0" width="953.09" height="733.34" maskUnits="userSpaceOnUse">
      <g id="mask0_15_120" data-name="mask0 15 120">
        <path class="cls-3" d="M953.09.1H0v733.15h953.09V.1Z"/>
      </g>
    </mask>
  </defs>
  <g id="Layer_1-2" data-name="Layer 1">
    <g class="cls-1">
      <g>
        <path class="cls-2" d="M20.29,733.24c-5.59,0-11.08,0-20.29-.98v-12.22c71.12-1.86,113.67-62.85,174.64-206.55,58.28-139.88,100.73-193.35,191.31-215.94l-133.12-149.27C189.44,99.61,119.25,31.97,77.64.1h57.35c12.94,21.6,74.85,98.53,136.76,169.01l175.57,199.02V124.05c0-51.61-1.86-85.44-7.36-123.95h71.22c-5.59,38.51-7.36,72.24-7.36,123.95v484.36c0,51.61,1.86,85.44,7.36,123.95h-71.22c5.59-38.51,7.36-72.24,7.36-123.95v-218.67l-62.84-71.36c-60.98,19.75-97.94,82.6-152.49,215.94-58.18,140.76-110.04,196.19-211.69,199.02"/>
        <path class="cls-2" d="M932.7,733.24c5.59,0,11.08,0,20.3-.98v-12.22c-71.12-1.86-113.67-62.85-174.64-206.55-58.18-139.88-100.73-193.35-191.31-215.94l133.12-149.27c43.48-48.78,113.67-116.42,155.28-148.29h-57.35c-12.94,21.6-74.85,98.53-136.75,169.01l-175.67,199.02V124.05c0-51.61,1.86-85.44,7.35-123.95h-71.22c5.59,38.51,7.35,72.24,7.35,123.95v484.36c0,51.61-1.86,85.44-7.35,123.95h71.22c-5.58-38.51-7.35-72.24-7.35-123.95v-218.67l62.84-71.36c60.98,19.75,97.93,82.6,152.49,215.94,58.18,140.76,110.04,196.19,211.69,199.02"/>
      </g>
    </g>
  </g>
</svg>