<?xml version="1.0" encoding="UTF-8"?>
<svg id="Layer_2" data-name="Layer 2" xmlns="http://www.w3.org/2000/svg" viewBox="0 0 1106.36 145.35">
  <defs>
    <style>
      .cls-1 {
        fill: #231f20;
      }
    </style>
  </defs>
  <g id="Layer_1-2" data-name="Layer 1">
    <g>
      <path class="cls-1" d="M43.55,82.05c-8.51-20.48-14.28-30.14-23.79-33.17l-9.81,10.96v33.6c0,7.93.29,13.12,1.15,19.03H0c.87-5.91,1.15-11.1,1.15-19.03V19.03C1.15,11.1.87,5.91,0,0h11.1c-.87,5.91-1.15,11.1-1.15,19.03v37.49l27.4-30.57C47.01,15.14,56.67,3.32,58.69,0h8.94c-6.49,4.9-17.45,15.29-24.23,22.78l-20.76,22.93c14.13,3.46,20.76,11.68,29.85,33.17,9.52,22.06,16.15,31.43,27.25,31.72v1.88c-1.44.14-2.31.14-3.17.14-15.86-.43-23.94-8.94-33.02-30.57Z"/>
      <g>
        <path class="cls-1" d="M138.42,36.49h7.06v75.99h-6.92v-13.99c-2.6,4.81-6.15,8.65-10.67,11.54-4.52,2.88-9.85,4.33-16,4.33-7.59,0-13.7-2.47-18.31-7.42-4.61-4.95-6.92-11.9-6.92-20.84v-49.6h6.92v49.31c0,7.02,1.8,12.52,5.41,16.51,3.6,3.99,8.44,5.98,14.49,5.98s11.41-1.8,15.79-5.41c4.37-3.6,7.43-7.91,9.16-12.9v-53.49Z"/>
        <path class="cls-1" d="M169.13,2.89h6.92v90.26c0,5.29.98,9.11,2.96,11.46,1.97,2.36,5.17,3.53,9.59,3.53,3.84,0,7.16-.96,9.95-2.88l-.72,6.78c-2.88,1.44-6.49,2.16-10.81,2.16-6.15,0-10.67-1.66-13.55-4.97-2.88-3.32-4.33-8.44-4.33-15.36V2.89Z"/>
      </g>
      <path class="cls-1" d="M214.84,93.87v-52.49h-12.4v-2.59h2.16c14.13,0,13.41-11.25,13.41-27.97h7.93c0,12.69-1.59,24.23-12.98,27.97h35.18v2.59h-25.38v50.76c0,11.54,4.47,18.17,12.11,18.17,8.94,0,14.56-8.94,16.44-26.53h1.73c-2.16,20.48-9.08,30.57-21.2,30.57-10.67,0-17.02-7.64-17.02-20.48Z"/>
      <g>
        <path class="cls-1" d="M316.35,36.49h7.06v75.99h-6.92v-13.99c-2.6,4.81-6.15,8.65-10.67,11.54-4.52,2.88-9.85,4.33-16,4.33-7.59,0-13.7-2.47-18.31-7.42-4.61-4.95-6.92-11.9-6.92-20.84v-49.6h6.92v49.31c0,7.02,1.8,12.52,5.41,16.51,3.6,3.99,8.44,5.98,14.49,5.98s11.41-1.8,15.79-5.41c4.37-3.6,7.43-7.91,9.16-12.9v-53.49Z"/>
        <path class="cls-1" d="M347.2,36.49h6.78v17.3c2.5-5.86,6.01-10.53,10.53-13.99,4.52-3.46,9.85-5.19,16-5.19,2.21,0,4.04.19,5.48.58l-.87,7.5c-1.73-.77-3.65-1.15-5.77-1.15-4.13,0-7.91.99-11.32,2.96-3.41,1.97-6.3,4.61-8.65,7.93-2.36,3.32-4.11,6.9-5.26,10.74v49.31h-6.92V36.49Z"/>
        <path class="cls-1" d="M402.86,2.89h6.92v67.62c3.65-3.08,7.86-6.66,12.62-10.74,4.76-4.08,9.44-8.19,14.06-12.33,4.61-4.13,8.6-7.79,11.97-10.96h8.65c-2.6,2.5-5.58,5.26-8.94,8.29-3.37,3.03-6.9,6.15-10.6,9.37-3.7,3.22-7.31,6.34-10.81,9.37-3.51,3.03-6.66,5.75-9.44,8.15,3.46,3.08,7.23,6.47,11.32,10.17,4.08,3.7,8.17,7.43,12.26,11.17,4.08,3.75,7.91,7.31,11.46,10.67,3.56,3.37,6.54,6.3,8.94,8.8h-9.37c-2.21-2.31-5.02-5.07-8.44-8.29-3.41-3.22-7.09-6.63-11.03-10.24-3.94-3.6-7.88-7.18-11.82-10.74-3.94-3.55-7.55-6.78-10.81-9.66v38.93h-6.92V2.89Z"/>
      </g>
      <path class="cls-1" d="M465.15,75.56c0-23.22,16.15-38.64,37.06-38.64s37.06,15.57,37.06,38.64-16.15,38.79-37.06,38.79-37.06-15.57-37.06-38.79ZM502.21,112.47c16.87,0,27.97-14.13,27.97-37.06s-10.96-36.62-27.97-36.62-27.97,13.84-27.97,36.62,10.96,37.06,27.97,37.06Z"/>
      <g>
        <path class="cls-1" d="M553.97,36.49h6.78v14.13c2.4-4.81,5.67-8.67,9.8-11.61,4.13-2.93,9.08-4.4,14.85-4.4s10.57,1.47,14.42,4.4c3.84,2.93,6.54,7.19,8.07,12.76,2.4-5.19,5.79-9.35,10.17-12.47,4.37-3.12,9.54-4.69,15.5-4.69,7.3,0,13.1,2.38,17.38,7.14,4.28,4.76,6.42,11.51,6.42,20.26v50.47h-7.07v-50.18c0-6.82-1.59-12.16-4.76-16-3.17-3.84-7.59-5.77-13.27-5.77s-10.5,1.78-14.49,5.33c-3.99,3.56-6.85,7.79-8.58,12.69v53.93h-7.07v-50.18c0-6.82-1.61-12.16-4.83-16-3.22-3.84-7.62-5.77-13.19-5.77-5.86,0-10.77,1.83-14.71,5.48-3.94,3.65-6.78,7.98-8.51,12.98v53.49h-6.92V36.49Z"/>
        <path class="cls-1" d="M680.28,36.49h6.78v14.42c2.4-4.9,5.89-8.84,10.45-11.82,4.56-2.98,9.78-4.47,15.64-4.47,6.34,0,11.87,1.63,16.58,4.9,4.71,3.27,8.34,7.86,10.89,13.77,2.55,5.91,3.82,12.95,3.82,21.12s-1.28,15.24-3.82,21.2c-2.55,5.96-6.18,10.58-10.89,13.84-4.71,3.27-10.24,4.9-16.58,4.9-5.86,0-11.06-1.47-15.57-4.4-4.52-2.93-7.98-6.8-10.38-11.61v47.01h-6.92V36.49ZM687.2,59.12v30.86c1.83,5.19,4.95,9.57,9.37,13.12,4.42,3.56,9.66,5.33,15.72,5.33,7.69,0,13.77-3.08,18.24-9.23,4.47-6.15,6.71-14.42,6.71-24.8s-2.26-18.62-6.78-24.73c-4.52-6.1-10.62-9.16-18.31-9.16-5.96,0-11.15,1.8-15.57,5.41-4.42,3.6-7.55,8-9.37,13.19Z"/>
      </g>
      <path class="cls-1" d="M758.29,95.89c0-13.12,12.11-17.88,25.38-22.21,11.82-3.75,25.52-7.07,25.52-20.33,0-9.08-6.63-14.56-15.72-14.56-11.39,0-18.31,8.36-20.91,11.39-2.16,2.45-3.6,3.61-6.06,3.61s-4.04-1.73-4.33-5.05c9.37-6.63,20.91-11.82,31.43-11.82,13.27,0,23.07,7.35,23.07,22.35v31.87c0,10.96.72,14.13,2.45,21.34h-9.52c-.58-8.22-.72-16.73-.72-25.23-5.05,19.32-18.17,27.11-29.7,27.11s-20.91-7.07-20.91-18.46ZM782.37,110.17c11.82,0,26.53-10.96,26.53-37.35v-10.53c-3.89,7.35-13.12,10.09-22.64,13.27-10.53,3.75-20.04,7.93-20.04,19.03,0,9.95,7.35,15.57,16.15,15.57Z"/>
      <g>
        <path class="cls-1" d="M874.14,108.44c-5.05,3.94-11.99,5.91-20.83,5.91-4.13,0-8.2-.53-12.18-1.59-3.99-1.06-7.38-2.45-10.17-4.18l.87-7.21c2.88,2.31,6.27,4.06,10.17,5.26,3.89,1.2,7.67,1.8,11.32,1.8,6.92,0,12.23-1.44,15.93-4.33,3.7-2.88,5.55-6.73,5.55-11.54,0-2.5-.53-4.66-1.59-6.49-1.06-1.82-2.96-3.55-5.7-5.19-2.74-1.63-6.61-3.32-11.61-5.05-8.56-3.08-14.54-6.17-17.95-9.3-3.41-3.12-5.12-7.09-5.12-11.9,0-4.23,1.13-7.83,3.39-10.81,2.26-2.98,5.31-5.26,9.16-6.85,3.84-1.59,8.12-2.38,12.83-2.38,3.65,0,7.21.46,10.67,1.37,3.46.92,6.49,2.19,9.08,3.82l-2.02,6.34c-5.1-3.84-10.96-5.77-17.59-5.77-5.29,0-9.71,1.18-13.26,3.53-3.56,2.36-5.33,5.75-5.33,10.17,0,3.65,1.46,6.56,4.4,8.72,2.93,2.16,8.05,4.54,15.36,7.14,5.86,2.12,10.4,4.28,13.63,6.49,3.22,2.21,5.46,4.61,6.71,7.21,1.25,2.6,1.87,5.53,1.87,8.8,0,6.73-2.52,12.06-7.57,16Z"/>
        <path class="cls-1" d="M940.61,108.44c-5.05,3.94-11.99,5.91-20.83,5.91-4.13,0-8.2-.53-12.18-1.59-3.99-1.06-7.38-2.45-10.17-4.18l.87-7.21c2.88,2.31,6.27,4.06,10.17,5.26,3.89,1.2,7.67,1.8,11.32,1.8,6.92,0,12.23-1.44,15.93-4.33,3.7-2.88,5.55-6.73,5.55-11.54,0-2.5-.53-4.66-1.59-6.49-1.06-1.82-2.96-3.55-5.7-5.19-2.74-1.63-6.61-3.32-11.61-5.05-8.56-3.08-14.54-6.17-17.95-9.3-3.41-3.12-5.12-7.09-5.12-11.9,0-4.23,1.13-7.83,3.39-10.81,2.26-2.98,5.31-5.26,9.16-6.85,3.84-1.59,8.12-2.38,12.83-2.38,3.65,0,7.21.46,10.67,1.37,3.46.92,6.49,2.19,9.08,3.82l-2.02,6.34c-5.1-3.84-10.96-5.77-17.59-5.77-5.29,0-9.71,1.18-13.26,3.53-3.56,2.36-5.33,5.75-5.33,10.17,0,3.65,1.46,6.56,4.4,8.72,2.93,2.16,8.05,4.54,15.36,7.14,5.86,2.12,10.4,4.28,13.63,6.49,3.22,2.21,5.46,4.61,6.71,7.21,1.25,2.6,1.87,5.53,1.87,8.8,0,6.73-2.52,12.06-7.57,16Z"/>
        <path class="cls-1" d="M1023.16,101.8l.58,7.21c-2.88,1.64-6.3,2.93-10.24,3.89-3.94.96-8.03,1.44-12.26,1.44-7.5,0-13.99-1.66-19.47-4.97-5.48-3.32-9.71-8.03-12.69-14.13-2.98-6.1-4.47-13.34-4.47-21.7,0-7.79,1.27-14.59,3.82-20.4,2.55-5.81,6.22-10.36,11.03-13.62,4.81-3.27,10.53-4.9,17.16-4.9,8.84,0,15.69,2.91,20.55,8.72,4.85,5.82,7.28,14.4,7.28,25.74v2.23c0,1.01-.05,1.85-.14,2.52h-52.77c.19,11.15,3.05,19.68,8.58,25.59,5.53,5.91,12.81,8.87,21.84,8.87,3.65,0,7.38-.55,11.17-1.66,3.8-1.1,7.14-2.71,10.02-4.83ZM1017.53,68.35v-.58c0-9.13-1.8-16.03-5.41-20.69-3.6-4.66-8.82-6.99-15.64-6.99-7.21,0-12.98,2.55-17.3,7.64-4.33,5.1-6.83,11.97-7.5,20.62h45.85Z"/>
      </g>
      <path class="cls-1" d="M1046.09,93.87v-52.49h-12.4v-2.59h2.16c14.13,0,13.41-11.25,13.41-27.97h7.93c0,12.69-1.59,24.23-12.98,27.97h35.18v2.59h-25.38v50.76c0,11.54,4.47,18.17,12.11,18.17,8.94,0,14.56-8.94,16.44-26.53h1.73c-2.16,20.48-9.08,30.57-21.2,30.57-10.67,0-17.02-7.64-17.02-20.48Z"/>
      <path class="cls-1" d="M1095.98,111.68c-1.15-1.3-1.73-2.86-1.73-4.69,0-1.92.58-3.51,1.73-4.76,1.15-1.25,2.6-1.88,4.33-1.88s3.17.63,4.33,1.88c1.15,1.25,1.73,2.84,1.73,4.76s-.58,3.39-1.73,4.69c-1.15,1.3-2.59,1.95-4.33,1.95s-3.17-.65-4.33-1.95Z"/>
    </g>
  </g>
</svg>