<?xml version="1.0" encoding="UTF-8"?>
<svg id="Layer_2" data-name="Layer 2" xmlns="http://www.w3.org/2000/svg" xmlns:xlink="http://www.w3.org/1999/xlink" viewBox="0 0 44 44">
  <defs>
    <style>
      .cls-1 {
        fill: none;
      }

      .cls-2 {
        mask: url(#mask);
      }

      .cls-3 {
        fill: #231f20;
      }

      .cls-4 {
        fill: #fff;
      }

      .cls-5 {
        clip-path: url(#clippath);
      }
    </style>
    <clipPath id="clippath">
      <rect class="cls-1" width="44" height="44"/>
    </clipPath>
    <mask id="mask" x="0" y="0" width="44" height="44" maskUnits="userSpaceOnUse">
      <g id="mask0_12_330" data-name="mask0 12 330">
        <path class="cls-4" d="M44,0H0v44h44V0Z"/>
      </g>
    </mask>
  </defs>
  <g id="Layer_1-2" data-name="Layer 1">
    <g class="cls-5">
      <g>
        <path class="cls-3" d="M44,0H0v44h44V0Z"/>
        <g class="cls-2">
          <g>
            <path class="cls-4" d="M34.64,32.78c.16,0,.33,0,.6-.03v-.36c-2.12-.05-3.4-1.85-5.22-6.07-1.74-4.11-3.01-5.68-5.71-6.35l3.97-4.39c1.3-1.44,3.4-3.42,4.63-4.36h-1.71c-.39.63-2.24,2.9-4.08,4.97l-5.24,5.85v-7.17c0-1.52.05-2.51.22-3.64h-2.12c.16,1.13.22,2.12.22,3.64v14.24c0,1.52-.05,2.51-.22,3.64h2.12c-.16-1.13-.22-2.12-.22-3.64v-6.43l1.88-2.1c1.82.58,2.93,2.43,4.55,6.35,1.74,4.14,3.29,5.77,6.32,5.85"/>
            <path class="cls-4" d="M7.6,32.78c-.16,0-.33,0-.6-.03v-.36c2.12-.05,3.4-1.85,5.22-6.07,1.74-4.11,3.01-5.68,5.71-6.35l-3.97-4.39c-1.3-1.44-3.4-3.42-4.63-4.36h1.71c.39.63,2.24,2.9,4.08,4.97l5.24,5.85v-7.17c0-1.52-.05-2.51-.22-3.64h2.12c-.16,1.13-.22,2.12-.22,3.64v14.24c0,1.52.05,2.51.22,3.64h-2.12c.16-1.13.22-2.12.22-3.64v-6.43l-1.88-2.1c-1.82.58-2.93,2.43-4.55,6.35-1.74,4.14-3.29,5.77-6.32,5.85"/>
          </g>
        </g>
      </g>
    </g>
  </g>
</svg>